<mxfile host="Electron" agent="Mozilla/5.0 (X11; Linux x86_64) AppleWebKit/537.36 (KHTML, like Gecko) draw.io/27.0.9 Chrome/134.0.6998.205 Electron/35.4.0 Safari/537.36" version="27.0.9">
  <diagram name="Page-1" id="8lpm2x68mHgcvznHmkPf">
    <mxGraphModel dx="1590" dy="1207" grid="1" gridSize="10" guides="1" tooltips="1" connect="1" arrows="1" fold="1" page="1" pageScale="1" pageWidth="850" pageHeight="1100" math="0" shadow="0">
      <root>
        <mxCell id="0" />
        <mxCell id="1" parent="0" />
        <mxCell id="5RpXC79Q0CYbs50ffNDS-63" value="" style="rounded=1;whiteSpace=wrap;html=1;" vertex="1" parent="1">
          <mxGeometry x="355" y="267" width="141" height="713" as="geometry" />
        </mxCell>
        <mxCell id="5RpXC79Q0CYbs50ffNDS-3" value="Register / Login" style="ellipse;whiteSpace=wrap;html=1;" vertex="1" parent="1">
          <mxGeometry x="365" y="280" width="120" height="40" as="geometry" />
        </mxCell>
        <mxCell id="5RpXC79Q0CYbs50ffNDS-4" value="Login" style="ellipse;whiteSpace=wrap;html=1;" vertex="1" parent="1">
          <mxGeometry x="365" y="330" width="120" height="40" as="geometry" />
        </mxCell>
        <mxCell id="5RpXC79Q0CYbs50ffNDS-5" value="Update Profile" style="ellipse;whiteSpace=wrap;html=1;" vertex="1" parent="1">
          <mxGeometry x="365" y="380" width="120" height="40" as="geometry" />
        </mxCell>
        <mxCell id="5RpXC79Q0CYbs50ffNDS-6" value="Create Listing" style="ellipse;whiteSpace=wrap;html=1;" vertex="1" parent="1">
          <mxGeometry x="365" y="430" width="120" height="40" as="geometry" />
        </mxCell>
        <mxCell id="5RpXC79Q0CYbs50ffNDS-7" value="Update Listing" style="ellipse;whiteSpace=wrap;html=1;" vertex="1" parent="1">
          <mxGeometry x="365" y="480" width="120" height="40" as="geometry" />
        </mxCell>
        <mxCell id="5RpXC79Q0CYbs50ffNDS-8" value="Delete Listing" style="ellipse;whiteSpace=wrap;html=1;" vertex="1" parent="1">
          <mxGeometry x="365" y="530" width="120" height="40" as="geometry" />
        </mxCell>
        <mxCell id="5RpXC79Q0CYbs50ffNDS-9" value="Find Listing" style="ellipse;whiteSpace=wrap;html=1;" vertex="1" parent="1">
          <mxGeometry x="365" y="580" width="120" height="40" as="geometry" />
        </mxCell>
        <mxCell id="5RpXC79Q0CYbs50ffNDS-10" value="Book a Property" style="ellipse;whiteSpace=wrap;html=1;" vertex="1" parent="1">
          <mxGeometry x="365" y="630" width="120" height="40" as="geometry" />
        </mxCell>
        <mxCell id="5RpXC79Q0CYbs50ffNDS-11" value="Cancel bookings" style="ellipse;whiteSpace=wrap;html=1;" vertex="1" parent="1">
          <mxGeometry x="367.09" y="680" width="120" height="40" as="geometry" />
        </mxCell>
        <mxCell id="5RpXC79Q0CYbs50ffNDS-12" value="Get Booking Status" style="ellipse;whiteSpace=wrap;html=1;" vertex="1" parent="1">
          <mxGeometry x="367.09" y="730" width="120" height="40" as="geometry" />
        </mxCell>
        <mxCell id="5RpXC79Q0CYbs50ffNDS-13" value="Pay for booking" style="ellipse;whiteSpace=wrap;html=1;" vertex="1" parent="1">
          <mxGeometry x="370" y="780" width="120" height="40" as="geometry" />
        </mxCell>
        <mxCell id="5RpXC79Q0CYbs50ffNDS-14" value="Get paid from booking" style="ellipse;whiteSpace=wrap;html=1;" vertex="1" parent="1">
          <mxGeometry x="370" y="830" width="120" height="40" as="geometry" />
        </mxCell>
        <mxCell id="5RpXC79Q0CYbs50ffNDS-15" value="Create Review on Listing" style="ellipse;whiteSpace=wrap;html=1;" vertex="1" parent="1">
          <mxGeometry x="367.09" y="880" width="120" height="40" as="geometry" />
        </mxCell>
        <mxCell id="5RpXC79Q0CYbs50ffNDS-16" value="Respond to Review on Lisiting" style="ellipse;whiteSpace=wrap;html=1;" vertex="1" parent="1">
          <mxGeometry x="367.09" y="930" width="120" height="40" as="geometry" />
        </mxCell>
        <mxCell id="5RpXC79Q0CYbs50ffNDS-21" style="rounded=0;orthogonalLoop=1;jettySize=auto;html=1;entryX=0;entryY=0.5;entryDx=0;entryDy=0;endArrow=none;startFill=0;exitX=1;exitY=0.3333333333333333;exitDx=0;exitDy=0;exitPerimeter=0;" edge="1" parent="1" source="5RpXC79Q0CYbs50ffNDS-17" target="5RpXC79Q0CYbs50ffNDS-3">
          <mxGeometry relative="1" as="geometry" />
        </mxCell>
        <mxCell id="5RpXC79Q0CYbs50ffNDS-22" style="rounded=0;orthogonalLoop=1;jettySize=auto;html=1;entryX=0;entryY=0.5;entryDx=0;entryDy=0;endArrow=none;startFill=0;exitX=1;exitY=0.3333333333333333;exitDx=0;exitDy=0;exitPerimeter=0;" edge="1" parent="1" source="5RpXC79Q0CYbs50ffNDS-17" target="5RpXC79Q0CYbs50ffNDS-4">
          <mxGeometry relative="1" as="geometry" />
        </mxCell>
        <mxCell id="5RpXC79Q0CYbs50ffNDS-23" style="rounded=0;orthogonalLoop=1;jettySize=auto;html=1;entryX=0;entryY=0.5;entryDx=0;entryDy=0;endArrow=none;startFill=0;" edge="1" parent="1" source="5RpXC79Q0CYbs50ffNDS-17" target="5RpXC79Q0CYbs50ffNDS-5">
          <mxGeometry relative="1" as="geometry" />
        </mxCell>
        <mxCell id="5RpXC79Q0CYbs50ffNDS-24" style="rounded=0;orthogonalLoop=1;jettySize=auto;html=1;entryX=0;entryY=0.5;entryDx=0;entryDy=0;endArrow=none;startFill=0;exitX=1;exitY=0.3333333333333333;exitDx=0;exitDy=0;exitPerimeter=0;" edge="1" parent="1" source="5RpXC79Q0CYbs50ffNDS-17" target="5RpXC79Q0CYbs50ffNDS-9">
          <mxGeometry relative="1" as="geometry" />
        </mxCell>
        <mxCell id="5RpXC79Q0CYbs50ffNDS-25" style="rounded=0;orthogonalLoop=1;jettySize=auto;html=1;entryX=0;entryY=0.5;entryDx=0;entryDy=0;endArrow=none;startFill=0;" edge="1" parent="1" target="5RpXC79Q0CYbs50ffNDS-10">
          <mxGeometry relative="1" as="geometry">
            <mxPoint x="210" y="480" as="sourcePoint" />
          </mxGeometry>
        </mxCell>
        <mxCell id="5RpXC79Q0CYbs50ffNDS-26" style="rounded=0;orthogonalLoop=1;jettySize=auto;html=1;entryX=0;entryY=0.5;entryDx=0;entryDy=0;endArrow=none;startFill=0;exitX=1;exitY=0.3333333333333333;exitDx=0;exitDy=0;exitPerimeter=0;" edge="1" parent="1" source="5RpXC79Q0CYbs50ffNDS-17" target="5RpXC79Q0CYbs50ffNDS-11">
          <mxGeometry relative="1" as="geometry" />
        </mxCell>
        <mxCell id="5RpXC79Q0CYbs50ffNDS-27" style="rounded=0;orthogonalLoop=1;jettySize=auto;html=1;entryX=0;entryY=0.5;entryDx=0;entryDy=0;endArrow=none;startFill=0;exitX=1;exitY=0.3333333333333333;exitDx=0;exitDy=0;exitPerimeter=0;" edge="1" parent="1" source="5RpXC79Q0CYbs50ffNDS-17" target="5RpXC79Q0CYbs50ffNDS-12">
          <mxGeometry relative="1" as="geometry" />
        </mxCell>
        <mxCell id="5RpXC79Q0CYbs50ffNDS-28" style="rounded=0;orthogonalLoop=1;jettySize=auto;html=1;entryX=0;entryY=0.5;entryDx=0;entryDy=0;endArrow=none;startFill=0;" edge="1" parent="1" target="5RpXC79Q0CYbs50ffNDS-13">
          <mxGeometry relative="1" as="geometry">
            <mxPoint x="210" y="480" as="sourcePoint" />
          </mxGeometry>
        </mxCell>
        <mxCell id="5RpXC79Q0CYbs50ffNDS-29" style="rounded=0;orthogonalLoop=1;jettySize=auto;html=1;entryX=0;entryY=0.5;entryDx=0;entryDy=0;endArrow=none;startFill=0;exitX=1;exitY=0.3333333333333333;exitDx=0;exitDy=0;exitPerimeter=0;" edge="1" parent="1" source="5RpXC79Q0CYbs50ffNDS-17" target="5RpXC79Q0CYbs50ffNDS-15">
          <mxGeometry relative="1" as="geometry" />
        </mxCell>
        <mxCell id="5RpXC79Q0CYbs50ffNDS-17" value="Guest" style="shape=umlActor;verticalLabelPosition=bottom;verticalAlign=top;html=1;outlineConnect=0;" vertex="1" parent="1">
          <mxGeometry x="140" y="450" width="70" height="100" as="geometry" />
        </mxCell>
        <mxCell id="5RpXC79Q0CYbs50ffNDS-30" style="rounded=0;orthogonalLoop=1;jettySize=auto;html=1;entryX=0;entryY=0.5;entryDx=0;entryDy=0;endArrow=none;startFill=0;" edge="1" parent="1" target="5RpXC79Q0CYbs50ffNDS-3">
          <mxGeometry relative="1" as="geometry">
            <mxPoint x="210" y="660" as="sourcePoint" />
          </mxGeometry>
        </mxCell>
        <mxCell id="5RpXC79Q0CYbs50ffNDS-31" style="rounded=0;orthogonalLoop=1;jettySize=auto;html=1;entryX=0;entryY=0.5;entryDx=0;entryDy=0;strokeColor=default;endArrow=none;startFill=0;exitX=1;exitY=0.3333333333333333;exitDx=0;exitDy=0;exitPerimeter=0;" edge="1" parent="1" source="5RpXC79Q0CYbs50ffNDS-20" target="5RpXC79Q0CYbs50ffNDS-4">
          <mxGeometry relative="1" as="geometry" />
        </mxCell>
        <mxCell id="5RpXC79Q0CYbs50ffNDS-32" style="rounded=0;orthogonalLoop=1;jettySize=auto;html=1;entryX=0;entryY=0.5;entryDx=0;entryDy=0;endArrow=none;startFill=0;exitX=1;exitY=0.3333333333333333;exitDx=0;exitDy=0;exitPerimeter=0;" edge="1" parent="1" source="5RpXC79Q0CYbs50ffNDS-20" target="5RpXC79Q0CYbs50ffNDS-5">
          <mxGeometry relative="1" as="geometry" />
        </mxCell>
        <mxCell id="5RpXC79Q0CYbs50ffNDS-33" style="rounded=0;orthogonalLoop=1;jettySize=auto;html=1;entryX=0;entryY=0.5;entryDx=0;entryDy=0;endArrow=none;startFill=0;exitX=1;exitY=0.3333333333333333;exitDx=0;exitDy=0;exitPerimeter=0;" edge="1" parent="1" source="5RpXC79Q0CYbs50ffNDS-20" target="5RpXC79Q0CYbs50ffNDS-6">
          <mxGeometry relative="1" as="geometry" />
        </mxCell>
        <mxCell id="5RpXC79Q0CYbs50ffNDS-34" style="rounded=0;orthogonalLoop=1;jettySize=auto;html=1;entryX=0;entryY=0.5;entryDx=0;entryDy=0;endArrow=none;startFill=0;exitX=1;exitY=0.3333333333333333;exitDx=0;exitDy=0;exitPerimeter=0;" edge="1" parent="1" source="5RpXC79Q0CYbs50ffNDS-20" target="5RpXC79Q0CYbs50ffNDS-7">
          <mxGeometry relative="1" as="geometry" />
        </mxCell>
        <mxCell id="5RpXC79Q0CYbs50ffNDS-35" style="rounded=0;orthogonalLoop=1;jettySize=auto;html=1;entryX=0;entryY=0.5;entryDx=0;entryDy=0;endArrow=none;startFill=0;exitX=1;exitY=0.3333333333333333;exitDx=0;exitDy=0;exitPerimeter=0;" edge="1" parent="1" source="5RpXC79Q0CYbs50ffNDS-20" target="5RpXC79Q0CYbs50ffNDS-8">
          <mxGeometry relative="1" as="geometry" />
        </mxCell>
        <mxCell id="5RpXC79Q0CYbs50ffNDS-36" style="rounded=0;orthogonalLoop=1;jettySize=auto;html=1;entryX=0;entryY=0.5;entryDx=0;entryDy=0;endArrow=none;startFill=0;exitX=1;exitY=0.3333333333333333;exitDx=0;exitDy=0;exitPerimeter=0;" edge="1" parent="1" source="5RpXC79Q0CYbs50ffNDS-20" target="5RpXC79Q0CYbs50ffNDS-14">
          <mxGeometry relative="1" as="geometry" />
        </mxCell>
        <mxCell id="5RpXC79Q0CYbs50ffNDS-38" style="rounded=0;orthogonalLoop=1;jettySize=auto;html=1;entryX=0;entryY=0.5;entryDx=0;entryDy=0;endArrow=none;startFill=0;exitX=1;exitY=0.3333333333333333;exitDx=0;exitDy=0;exitPerimeter=0;" edge="1" parent="1" source="5RpXC79Q0CYbs50ffNDS-20" target="5RpXC79Q0CYbs50ffNDS-16">
          <mxGeometry relative="1" as="geometry" />
        </mxCell>
        <mxCell id="5RpXC79Q0CYbs50ffNDS-20" value="Host" style="shape=umlActor;verticalLabelPosition=bottom;verticalAlign=top;html=1;outlineConnect=0;" vertex="1" parent="1">
          <mxGeometry x="140" y="630" width="70" height="100" as="geometry" />
        </mxCell>
      </root>
    </mxGraphModel>
  </diagram>
</mxfile>
